<?xml version="1.0" standalone="no"?>
<!DOCTYPE svg PUBLIC "-//W3C//DTD SVG 20010904//EN"
 "http://www.w3.org/TR/2001/REC-SVG-20010904/DTD/svg10.dtd">
<svg version="1.0" xmlns="http://www.w3.org/2000/svg"
 width="512.000000pt" height="512.000000pt" viewBox="0 0 512.000000 512.000000"
 preserveAspectRatio="xMidYMid meet">
<metadata>
Created by potrace 1.14, written by Peter Selinger 2001-2017
</metadata>
<g transform="translate(0.000000,512.000000) scale(0.100000,-0.100000)"
fill="#000000" stroke="none">
<path d="M0 2560 l0 -2560 2560 0 2560 0 0 2560 0 2560 -2560 0 -2560 0 0
-2560z m2971 1455 c4 -407 9 -603 18 -633 22 -83 71 -173 245 -456 97 -158
176 -291 176 -297 0 -11 -50 -8 -215 17 -120 18 -249 52 -365 95 -47 17 -116
40 -154 51 -38 10 -73 21 -76 23 -14 9 -249 54 -310 60 -130 12 -448 6 -502
-11 -10 -3 -18 -2 -18 3 0 4 52 91 115 193 89 142 123 207 148 280 l32 95 2
580 c2 319 3 583 3 587 0 4 201 6 448 5 l447 -2 6 -590z m-667 -1470 c128 -18
227 -43 361 -91 346 -123 484 -149 791 -149 l162 0 348 -560 c192 -308 362
-586 379 -619 26 -53 30 -71 30 -146 0 -72 -4 -94 -27 -143 -54 -115 -123
-178 -236 -216 -61 -21 -71 -21 -1590 -21 -1699 0 -1596 -4 -1701 68 -152 104
-209 309 -129 466 11 23 165 273 341 556 176 283 353 570 395 636 72 116 77
123 128 144 30 12 59 23 66 24 7 1 39 10 70 19 152 46 417 59 612 32z"/>
</g>
</svg>
