<?xml version="1.0" standalone="no"?>
<!DOCTYPE svg PUBLIC "-//W3C//DTD SVG 20010904//EN"
 "http://www.w3.org/TR/2001/REC-SVG-20010904/DTD/svg10.dtd">
<svg version="1.0" xmlns="http://www.w3.org/2000/svg"
 width="512.000000pt" height="512.000000pt" viewBox="0 0 512.000000 512.000000"
 preserveAspectRatio="xMidYMid meet">
<metadata>
Created by potrace 1.14, written by Peter Selinger 2001-2017
</metadata>
<g transform="translate(0.000000,512.000000) scale(0.100000,-0.100000)"
fill="#000000" stroke="none">
<path d="M1891 4434 l-174 -171 -5 -52 c-3 -34 -1 -51 7 -52 42 -5 57 -4 66 2
6 4 12 7 15 8 10 0 45 15 50 21 3 3 20 16 38 29 52 37 37 9 -22 -37 -30 -24
-72 -62 -94 -85 -22 -23 -80 -78 -128 -122 -48 -44 -166 -159 -263 -256 -140
-140 -177 -182 -177 -203 0 -14 4 -26 9 -26 4 0 5 -5 2 -11 -10 -15 25 -37 49
-31 12 3 58 32 103 64 45 32 84 58 88 58 3 0 16 10 29 23 13 12 66 53 119 92
54 38 97 74 97 79 0 5 3 7 6 3 3 -3 15 3 27 13 69 60 83 70 89 70 4 0 26 18
50 39 23 22 58 49 78 60 40 22 49 19 156 -54 33 -22 72 -46 87 -54 15 -8 27
-18 27 -23 0 -9 -14 -10 -130 -13 -41 -2 -91 -9 -111 -18 -38 -16 -109 -73
-109 -89 0 -5 -34 -59 -75 -121 -41 -62 -80 -119 -85 -127 -5 -8 -44 -67 -86
-130 -42 -63 -79 -121 -82 -130 -3 -8 -9 -17 -12 -20 -9 -6 -120 -176 -120
-183 0 -3 -17 -32 -38 -64 -38 -58 -68 -115 -74 -143 -4 -18 -28 -39 -45 -40
-14 0 -19 -4 -97 -76 -27 -24 -52 -41 -56 -37 -4 4 -13 24 -20 43 -8 19 -23
41 -34 49 -28 21 -103 14 -154 -14 l-43 -24 -27 24 c-39 34 -91 71 -137 96
-22 12 -51 32 -64 45 -13 13 -30 24 -38 24 -8 0 -43 16 -79 35 -36 20 -69 33
-75 30 -5 -4 -9 -2 -9 4 0 6 -6 8 -14 5 -8 -3 -16 -1 -19 3 -8 13 -136 7 -152
-7 -7 -6 -12 -23 -10 -38 2 -15 4 -30 4 -34 1 -4 45 -42 98 -85 138 -109 348
-317 338 -334 -11 -17 -13 -59 -3 -59 4 0 8 -6 8 -13 0 -16 88 -117 103 -118
7 0 22 -13 35 -29 17 -21 21 -34 14 -47 -8 -15 -9 -113 -2 -120 1 -2 3 -6 4
-10 1 -5 10 -20 20 -35 13 -20 37 -33 89 -50 96 -29 103 -35 74 -62 -20 -19
-23 -28 -19 -63 4 -33 119 -132 145 -125 4 1 7 -2 7 -8 0 -11 92 -40 127 -40
15 0 22 -4 18 -11 -10 -15 -13 -59 -5 -59 3 0 13 -12 20 -26 16 -29 59 -62 86
-67 11 -1 24 -6 30 -9 6 -4 21 -6 33 -3 16 3 24 -2 31 -20 7 -18 22 -28 55
-37 43 -12 58 -24 33 -26 -16 -1 -53 -10 -53 -12 0 -2 -20 -5 -85 -14 -84 -12
-105 -18 -120 -37 -15 -19 -48 -31 -85 -30 -28 0 -43 -16 -55 -58 -11 -42 -36
-60 -91 -66 -49 -5 -69 -20 -69 -51 0 -15 -10 -30 -27 -41 -16 -10 -38 -27
-50 -38 -12 -11 -26 -20 -30 -20 -4 -1 -26 -12 -48 -26 -22 -14 -64 -39 -93
-55 -55 -30 -74 -63 -55 -93 18 -29 110 -34 243 -15 29 4 64 12 68 14 13 12
73 1 101 -17 19 -13 41 -24 50 -24 9 -1 27 -3 41 -6 14 -2 43 -6 65 -8 22 -2
51 -7 65 -10 14 -4 36 -8 50 -10 39 -6 62 -12 105 -28 48 -18 67 -19 123 -5
33 8 57 8 100 -2 67 -16 190 -21 197 -10 3 5 18 5 33 1 60 -17 242 -2 293 24
16 9 29 13 29 10 0 -3 6 -1 13 5 6 5 41 29 77 53 57 37 149 117 135 117 -5 0
18 28 71 87 12 12 23 23 25 23 2 0 3 -70 2 -155 -2 -112 1 -156 10 -162 16
-10 108 -12 126 -3 16 9 17 22 20 180 l1 105 43 -45 c23 -25 57 -64 76 -87 27
-33 112 -93 141 -99 3 0 35 -14 71 -31 51 -24 76 -30 115 -27 27 1 78 3 114 4
36 1 70 6 77 11 7 7 26 6 55 -2 24 -7 46 -13 51 -15 4 -1 8 -3 10 -4 19 -20
157 25 157 50 0 6 17 -1 39 -15 47 -32 96 -31 164 3 27 13 68 25 92 27 23 1
47 5 53 9 6 3 13 2 17 -4 3 -6 17 -8 29 -6 30 5 105 43 131 66 21 18 53 23 70
10 6 -4 18 -6 28 -5 9 2 17 0 17 -3 0 -4 23 -8 51 -10 28 -2 62 -7 75 -13 14
-5 43 -9 64 -9 31 0 43 5 55 24 25 38 21 81 -11 117 -15 18 -94 62 -114 64
-17 1 -70 29 -71 36 -1 5 -2 12 -3 17 -3 18 -49 72 -62 72 -8 0 -14 5 -14 11
0 5 -4 8 -9 4 -5 -3 -12 -2 -15 3 -3 5 -26 7 -51 6 -41 -2 -47 0 -56 22 -5 14
-9 40 -9 58 0 35 -16 55 -47 61 -10 2 -18 4 -18 5 0 3 -51 10 -72 10 -13 0
-23 4 -23 9 0 5 -6 9 -12 8 -7 0 -48 1 -92 1 -60 2 -77 5 -73 15 9 24 -42 61
-84 62 -34 0 -37 2 -22 13 9 6 24 12 33 12 9 0 20 3 24 7 4 5 22 8 39 8 18 1
38 4 45 8 6 5 17 5 22 2 6 -3 10 -2 10 4 0 6 7 8 15 5 8 -4 15 -1 15 5 0 6 3
10 8 10 21 -4 73 16 98 38 35 30 41 88 11 113 -16 14 -14 15 25 15 24 0 48 3
54 8 7 4 16 7 20 6 5 -1 12 0 17 1 4 1 10 3 15 4 35 9 87 41 124 77 37 36 45
50 44 78 -1 27 -7 37 -33 51 l-32 17 26 14 c14 7 31 14 37 14 80 6 185 80 187
132 2 56 -3 88 -17 104 -13 14 -12 18 11 33 102 67 149 144 146 237 -1 20 9
33 39 54 22 15 57 46 77 69 47 51 195 181 225 197 13 6 40 29 61 50 28 28 37
46 37 71 0 18 -4 38 -8 43 -9 12 -132 14 -132 2 0 -5 -6 -7 -14 -4 -8 3 -17 3
-21 -1 -4 -4 -11 -8 -16 -8 -5 -1 -11 -3 -14 -4 -3 -1 -8 -3 -12 -5 -28 -7
-167 -68 -173 -75 -3 -3 -23 -19 -45 -35 -22 -16 -62 -47 -89 -70 -49 -39 -84
-50 -98 -31 -7 10 -97 12 -136 3 -45 -11 -92 -31 -92 -39 0 -4 -7 -8 -15 -8
-8 0 -15 -4 -15 -10 0 -6 -10 -6 -27 1 -16 6 -29 10 -30 10 -2 -1 -16 -1 -33
-1 -25 0 -32 6 -44 35 -8 19 -22 38 -31 41 -8 3 -15 12 -15 20 0 8 -4 14 -8
14 -5 0 -15 12 -23 28 -8 15 -16 29 -19 32 -9 10 -50 85 -66 123 -9 20 -20 37
-25 37 -5 0 -9 7 -9 15 0 8 -4 15 -9 15 -5 0 -14 14 -21 30 -7 17 -16 30 -20
30 -4 0 -12 12 -19 28 -11 25 -59 100 -71 112 -10 10 -80 120 -80 125 0 6 -55
83 -80 113 -6 6 -8 12 -4 12 4 0 -2 10 -13 23 -21 23 -77 111 -103 161 -8 15
-25 38 -38 50 -13 11 -40 36 -59 54 -27 24 -44 32 -73 32 -65 0 -120 -30 -120
-65 0 -8 19 -52 42 -98 23 -45 43 -84 43 -87 7 -28 66 -132 90 -156 16 -16 39
-43 50 -58 38 -54 179 -216 187 -216 4 0 8 -7 8 -15 0 -9 23 -38 50 -66 28
-27 50 -52 50 -55 0 -6 70 -97 116 -149 19 -23 53 -68 76 -100 22 -33 51 -71
64 -84 26 -26 29 -37 14 -46 -5 -3 -10 1 -10 9 0 21 -11 22 -100 13 -91 -10
-183 -74 -228 -158 -32 -59 -38 -63 -80 -51 -50 15 -85 15 -100 0 -7 -7 -12
-9 -12 -5 0 4 -18 -12 -41 -37 -23 -24 -41 -48 -41 -53 0 -4 -5 -17 -11 -28
-6 -11 -12 -22 -12 -25 -1 -3 -7 -24 -14 -48 -10 -35 -15 -41 -29 -33 -24 12
-54 -2 -85 -39 -15 -17 -27 -26 -27 -20 0 6 -11 23 -24 37 -14 15 -23 30 -20
35 3 4 0 8 -5 8 -6 0 -11 10 -11 22 0 12 3 19 6 15 12 -12 64 24 87 61 32 50
49 98 53 151 4 52 -5 66 -55 88 -41 18 -43 19 -90 27 -18 4 -50 16 -72 26 -21
11 -45 20 -53 20 -7 0 -17 7 -20 16 -4 9 -9 14 -13 11 -3 -4 -28 9 -55 28 -26
19 -52 35 -56 35 -7 0 -115 109 -156 157 -10 12 -15 27 -11 33 4 7 14 3 26
-12 46 -54 90 -98 98 -98 5 0 19 -13 32 -30 13 -16 28 -30 33 -30 5 0 16 -8
25 -18 20 -22 135 -78 154 -74 4 1 7 -2 7 -8 0 -6 3 -9 8 -9 4 1 9 0 12 -1 14
-5 63 -10 143 -14 88 -4 88 -4 110 26 12 16 23 34 23 39 1 5 3 11 4 14 1 3 4
10 5 15 1 6 3 11 5 13 9 11 12 203 4 272 -2 22 -6 59 -7 82 -2 23 -6 45 -9 49
-4 3 -4 17 -2 30 2 13 1 24 -4 24 -4 0 -8 10 -9 23 0 27 -6 52 -31 139 -11 37
-17 70 -14 73 3 3 0 5 -6 5 -7 0 -11 3 -11 8 1 4 0 10 -1 15 -1 4 -3 10 -4 15
-1 4 -9 23 -18 42 -8 19 -34 78 -57 130 -52 119 -38 98 -179 265 -9 11 -42 52
-72 91 -101 131 -166 194 -192 186 -5 -1 -8 1 -8 5 0 10 -113 8 -129 -1 -6 -4
-11 -4 -11 -1 0 3 -11 -6 -25 -21 -14 -15 -25 -33 -25 -40 0 -27 -17 -14 -35
26 -10 22 -22 40 -27 40 -4 0 -8 6 -8 14 0 8 -6 21 -12 28 -17 17 -41 58 -79
131 -48 94 -119 200 -156 233 -30 28 -41 31 -91 31 l-57 -1 -174 -172z m227
-122 c-1 -4 8 -27 21 -50 12 -24 20 -46 18 -48 -2 -3 -16 0 -31 6 -15 5 -32 7
-37 4 -6 -3 -15 -2 -22 3 -7 5 -40 9 -74 8 -35 0 -63 3 -63 7 0 4 6 8 13 8 7
0 29 11 50 25 20 14 37 23 37 20 0 -4 7 1 16 9 8 9 19 14 24 11 5 -3 11 -1 15
4 6 11 36 4 33 -7z m236 -794 c64 -3 60 2 73 -80 3 -21 4 -38 1 -38 -10 0
-173 84 -176 91 -2 4 -17 3 -35 -3 -18 -5 -36 -10 -42 -11 -41 -9 -49 -65 -13
-89 17 -11 23 -26 24 -61 2 -51 -3 -55 -71 -61 -78 -7 -116 -84 -72 -144 73
-101 84 -118 80 -129 -3 -7 -11 -13 -18 -13 -20 0 -84 -66 -91 -94 -3 -14 -3
-51 0 -83 2 -32 5 -61 5 -65 1 -4 8 -14 17 -22 8 -9 16 -26 16 -38 1 -13 13
-36 27 -51 l26 -29 -34 -28 c-24 -21 -33 -36 -32 -57 1 -60 7 -102 14 -109 4
-4 -1 -13 -12 -20 -38 -27 -2 -99 63 -125 38 -16 48 -29 34 -46 -6 -7 -8 -21
-6 -30 4 -15 -2 -18 -35 -19 -30 -1 -46 -8 -63 -27 l-22 -25 -10 21 c-10 21
-24 56 -27 67 -9 35 -41 119 -51 135 -8 11 -14 27 -14 37 0 10 -3 18 -7 18 -5
0 -19 18 -32 40 -28 45 -61 50 -98 15 -34 -33 -51 -44 -56 -39 -2 2 -10 -2
-17 -11 -11 -13 -18 -4 -51 61 -20 42 -42 81 -48 87 -6 6 -11 18 -11 27 0 9
-8 24 -17 32 -21 17 -83 23 -83 8 0 -5 -6 -10 -14 -10 -7 0 -34 -11 -59 -25
l-46 -24 -16 22 c-8 12 -15 29 -15 39 0 10 -5 18 -11 18 -5 0 -7 5 -4 10 4 6
10 8 15 5 5 -3 19 9 31 27 12 18 39 51 58 74 34 39 59 70 98 122 10 13 28 34
41 47 12 13 22 27 22 31 0 4 8 14 18 23 10 9 29 32 42 51 14 19 45 58 70 86
89 101 107 124 103 128 -3 2 9 14 26 27 17 13 31 26 31 31 0 4 8 16 18 26 9
10 27 32 40 49 13 17 37 46 53 64 16 17 38 46 50 64 l22 32 116 -3 c64 -1 143
-4 175 -6z m117 -258 c2 -14 7 -27 11 -30 4 -3 9 -15 11 -26 4 -31 97 -208
114 -217 11 -7 11 -12 3 -22 -21 -25 -66 41 -135 198 -24 55 -46 147 -39 159
8 13 30 -26 35 -62z m563 -1308 c3 -5 -9 -17 -26 -27 -22 -12 -29 -14 -23 -4
22 38 38 48 49 31z m-760 -51 c-7 -7 -34 28 -34 43 1 6 10 0 21 -13 11 -13 17
-27 13 -30z"/>
<path d="M3083 4592 c-25 -12 -44 -37 -78 -101 -26 -47 -66 -120 -90 -161 -25
-41 -47 -90 -51 -107 -3 -18 -11 -33 -17 -33 -6 0 -8 -3 -4 -6 3 -3 2 -16 -3
-28 -5 -13 -4 -30 3 -42 13 -24 86 -94 99 -94 5 0 6 -4 3 -10 -11 -18 18 -62
93 -136 48 -49 55 -52 83 -44 17 5 47 19 67 31 21 13 66 37 100 56 l64 33 50
-48 c27 -26 57 -54 66 -62 8 -8 18 -14 21 -13 6 2 133 -94 177 -134 13 -13 27
-23 29 -23 8 0 97 -64 116 -81 9 -9 20 -18 25 -20 5 -2 48 -30 95 -62 74 -50
94 -59 135 -60 48 -2 49 -1 52 29 2 24 -2 33 -23 44 -14 7 -25 19 -25 27 0 7
-4 13 -10 13 -5 0 -10 5 -10 10 0 10 -206 220 -216 220 -2 0 -34 30 -72 68
-37 37 -119 116 -182 175 -63 60 -110 107 -105 104 6 -3 20 -1 33 4 20 8 22
15 22 81 l-1 73 -68 70 c-77 79 -96 95 -111 95 -5 0 -10 6 -10 14 0 14 -69 82
-114 111 -36 24 -103 27 -143 7z m134 -274 c15 -7 32 -18 36 -25 5 -8 12 -11
17 -8 5 3 14 -4 20 -15 6 -11 15 -20 20 -20 5 0 18 -7 27 -15 10 -8 27 -22 38
-30 19 -15 15 -16 -51 -10 -101 8 -177 -14 -239 -71 -26 -24 -51 -41 -56 -38
-6 3 -4 11 4 17 24 19 137 159 138 171 1 6 1 14 0 19 0 4 3 7 9 7 5 0 7 7 4
15 -7 18 -3 19 33 3z m-204 -253 c-3 -9 -8 -14 -10 -11 -3 3 -2 9 2 15 9 16
15 13 8 -4z"/>
</g>
</svg>
