<?xml version="1.0" standalone="no"?>
<!DOCTYPE svg PUBLIC "-//W3C//DTD SVG 20010904//EN"
 "http://www.w3.org/TR/2001/REC-SVG-20010904/DTD/svg10.dtd">
<svg version="1.0" xmlns="http://www.w3.org/2000/svg"
 width="512.000000pt" height="512.000000pt" viewBox="0 0 512.000000 512.000000"
 preserveAspectRatio="xMidYMid meet">
<metadata>
Created by potrace 1.14, written by Peter Selinger 2001-2017
</metadata>
<g transform="translate(0.000000,512.000000) scale(0.100000,-0.100000)"
fill="#000000" stroke="none">
<path d="M2047 4971 c-27 -30 -44 -68 -76 -165 -22 -69 -43 -136 -45 -148 -3
-13 -14 -59 -26 -103 -25 -96 -26 -100 -50 -241 -24 -133 -27 -157 -36 -249
-3 -38 -8 -86 -10 -105 -13 -101 -5 -572 10 -657 2 -10 7 -44 11 -77 8 -65 12
-94 25 -149 l8 -38 -31 26 c-50 40 -306 210 -371 245 -262 143 -512 245 -806
328 -92 26 -146 39 -340 83 -25 6 -84 12 -132 15 l-87 4 -37 -34 c-35 -32 -37
-37 -39 -106 l-2 -72 81 -128 c45 -71 90 -141 101 -155 11 -15 36 -48 54 -74
36 -47 164 -203 191 -232 8 -8 27 -29 41 -45 64 -72 307 -300 378 -354 18 -14
45 -34 59 -46 97 -76 352 -236 440 -275 42 -18 41 -24 -5 -27 -65 -4 -219 -27
-323 -47 -115 -23 -354 -97 -497 -154 -218 -88 -440 -202 -499 -257 -33 -31
-34 -35 -34 -106 0 -69 2 -76 30 -105 21 -21 49 -35 92 -46 94 -24 241 -52
326 -63 20 -2 48 -7 62 -9 105 -20 621 -28 787 -12 88 8 297 42 352 57 43 12
46 9 22 -17 -62 -66 -207 -311 -251 -423 -12 -30 -28 -68 -35 -85 -32 -69 -65
-211 -65 -277 0 -64 2 -69 35 -103 34 -34 38 -35 108 -35 40 0 82 6 94 13 12
6 45 25 74 40 287 157 556 384 734 619 l73 96 11 -76 c15 -105 27 -175 36
-221 2 -12 7 -43 9 -67 3 -24 8 -54 11 -66 2 -13 7 -36 10 -53 8 -46 35 -215
41 -255 4 -23 18 -47 41 -69 l36 -34 111 5 c121 6 146 14 188 60 27 30 28 31
23 145 -3 63 -7 117 -9 121 -2 4 -7 43 -11 87 -4 44 -8 82 -10 85 -2 3 -6 39
-10 80 -11 112 -14 142 -31 274 l-6 50 43 -35 c24 -18 53 -42 64 -52 42 -38
196 -134 300 -187 149 -75 341 -145 500 -180 28 -7 59 -14 70 -17 11 -2 61 -7
110 -10 l90 -5 38 37 c36 36 37 39 37 109 0 71 -1 72 -60 160 -125 185 -318
395 -475 518 -30 23 -53 43 -52 44 1 1 61 4 132 7 72 4 139 8 150 10 11 3 46
8 79 12 235 28 504 104 769 217 122 52 313 144 327 158 3 3 21 14 40 24 71 39
80 57 80 155 0 97 -5 108 -70 135 -36 15 -268 65 -330 71 -19 2 -51 6 -70 9
-50 7 -137 17 -195 21 -62 5 -497 6 -545 1 -19 -2 -66 -7 -105 -10 -68 -7
-115 -13 -158 -22 -13 -2 27 45 104 124 141 144 174 180 245 272 245 316 434
690 550 1093 25 88 34 138 34 193 0 72 -1 75 -35 107 -33 32 -38 33 -110 31
-71 -2 -80 -5 -211 -73 -238 -125 -511 -307 -705 -470 -196 -164 -461 -442
-562 -591 l-17 -24 -1 49 c-4 264 -84 628 -205 936 -109 278 -322 656 -452
800 l-44 49 -78 0 c-78 0 -78 0 -113 -39z"/>
</g>
</svg>
