<?xml version="1.0" standalone="no"?>
<!DOCTYPE svg PUBLIC "-//W3C//DTD SVG 20010904//EN"
 "http://www.w3.org/TR/2001/REC-SVG-20010904/DTD/svg10.dtd">
<svg version="1.0" xmlns="http://www.w3.org/2000/svg"
 width="708.000000pt" height="708.000000pt" viewBox="0 0 708.000000 708.000000"
 preserveAspectRatio="xMidYMid meet">
<metadata>
Created by potrace 1.14, written by Peter Selinger 2001-2017
</metadata>
<g transform="translate(0.000000,708.000000) scale(0.100000,-0.100000)"
fill="#000000" stroke="none">
<path d="M0 3540 l0 -3540 3540 0 3540 0 0 3540 0 3540 -3540 0 -3540 0 0
-3540z m3710 2758 c11 -12 20 -33 20 -47 0 -14 5 -50 10 -80 14 -77 74 -594
125 -1071 32 -303 30 -294 66 -324 57 -48 59 -47 322 181 43 38 97 84 120 104
55 47 139 91 160 83 32 -12 56 -129 77 -364 5 -69 15 -154 20 -190 12 -77 35
-294 51 -470 10 -113 14 -128 37 -152 35 -38 71 -36 162 8 41 20 154 69 250
110 96 41 216 92 265 114 217 95 263 110 289 100 50 -19 54 -76 15 -208 -10
-35 -17 -67 -14 -71 2 -4 -10 -61 -26 -127 -17 -65 -35 -144 -40 -174 -4 -30
-20 -104 -34 -165 -15 -60 -28 -119 -29 -130 -2 -11 -17 -81 -34 -155 -79
-350 -103 -456 -102 -468 0 -8 -13 -69 -30 -136 -16 -67 -32 -140 -35 -162 -4
-21 -15 -70 -25 -109 -10 -38 -28 -119 -39 -180 -12 -60 -29 -141 -40 -180
-10 -38 -22 -90 -25 -115 -4 -25 -18 -90 -31 -145 -13 -55 -43 -190 -65 -300
-23 -110 -53 -241 -66 -290 -13 -50 -24 -103 -24 -117 0 -33 -12 -41 -64 -43
-23 -1 -111 -12 -196 -25 -85 -12 -202 -28 -260 -35 -58 -8 -175 -23 -260 -35
-85 -11 -206 -27 -268 -35 -62 -7 -125 -16 -140 -19 -24 -6 -215 -31 -302 -41
-19 -2 -87 -11 -150 -20 -133 -18 -133 -18 -305 -39 -259 -31 -304 -22 -414
87 -41 39 -84 88 -96 107 -13 19 -34 46 -49 59 -14 14 -26 28 -26 33 0 4 -42
58 -92 118 -51 60 -109 130 -128 155 -19 24 -78 96 -130 159 -118 143 -141
172 -160 202 -8 12 -41 54 -73 91 -86 101 -236 284 -282 342 -40 52 -197 245
-254 312 -17 20 -31 40 -31 43 0 15 111 207 148 256 21 28 58 88 81 133 22 45
59 107 80 137 22 30 56 87 75 126 20 40 56 102 81 139 45 65 105 174 105 190
0 4 20 35 44 69 24 34 70 109 101 167 31 57 73 126 92 153 19 27 53 84 74 127
22 43 59 107 83 141 24 35 65 104 90 153 26 50 68 120 94 157 26 37 56 89 66
115 11 27 43 82 72 123 28 41 66 104 84 140 18 36 60 108 95 160 34 52 70 115
80 140 11 25 38 72 61 105 23 33 58 93 78 133 21 41 62 111 92 155 30 45 71
115 91 156 19 41 52 97 72 125 21 28 59 90 84 138 26 48 65 115 88 148 23 33
60 98 83 143 41 82 67 107 113 107 12 0 31 -10 43 -22z"/>
<path d="M4639 3927 c-14 -8 -97 -44 -185 -82 -87 -37 -182 -78 -211 -91 -28
-13 -54 -24 -57 -24 -3 0 -42 -17 -88 -39 -112 -52 -419 -186 -838 -366 -124
-53 -247 -107 -275 -119 -27 -13 -135 -60 -240 -105 -104 -44 -446 -193 -760
-329 -482 -210 -570 -252 -573 -270 -4 -29 33 -30 50 -3 9 15 16 17 29 10 14
-7 21 -4 33 12 10 15 20 19 35 14 14 -4 23 0 30 13 7 14 18 18 35 15 18 -4 26
0 30 15 5 14 13 18 30 15 17 -4 27 1 35 15 8 14 17 19 32 15 15 -4 27 0 35 12
9 11 21 16 35 12 16 -4 23 0 26 14 5 16 11 19 33 14 23 -5 30 -2 35 14 5 17
12 20 31 15 20 -5 26 -2 31 14 4 17 10 20 35 15 23 -5 30 -2 34 14 4 15 12 18
33 15 22 -3 29 1 33 16 5 16 11 19 28 15 15 -4 27 0 36 11 9 12 19 16 34 11
16 -5 23 -2 27 14 4 16 11 19 35 14 24 -5 30 -2 35 16 4 16 11 19 28 15 17 -4
26 0 34 14 8 14 17 19 32 15 14 -4 25 0 31 11 5 9 20 16 34 16 13 0 27 7 31
16 4 11 13 13 33 9 23 -5 30 -2 35 15 5 17 12 20 32 15 19 -4 26 -1 30 15 4
15 11 18 28 14 17 -4 27 0 36 13 8 13 19 18 35 15 16 -3 26 1 30 12 4 9 18 16
34 16 16 0 30 7 34 16 4 10 14 14 26 11 13 -3 25 2 34 15 10 14 21 18 35 13
14 -4 23 0 31 15 8 15 17 19 36 14 20 -5 26 -2 31 15 4 16 11 19 28 15 17 -4
27 0 36 13 8 13 19 18 35 15 16 -3 26 1 30 12 4 9 18 16 34 16 16 0 30 7 34
16 4 11 13 14 27 11 13 -3 24 1 32 13 8 13 18 18 33 14 16 -4 26 0 34 15 8 16
17 20 36 15 20 -5 26 -2 30 13 4 15 12 18 34 15 21 -3 30 1 34 16 5 14 13 18
28 14 13 -3 26 1 34 12 8 12 19 16 33 11 14 -4 23 0 31 15 8 15 17 19 34 14
19 -4 26 -1 31 15 5 16 12 20 30 15 17 -4 27 0 36 13 8 13 19 18 35 15 16 -3
26 1 30 12 3 9 16 16 29 16 12 0 28 7 36 16 7 8 21 13 31 11 12 -3 23 2 31 13
8 13 18 18 33 14 16 -4 26 0 33 14 7 13 17 18 30 15 13 -3 24 2 32 16 9 14 20
19 35 15 16 -4 26 0 33 14 8 14 17 19 32 15 14 -4 25 0 31 11 5 9 19 16 32 16
13 0 29 7 37 16 7 8 21 13 31 11 11 -3 24 3 32 14 8 13 19 17 30 13 11 -4 22
1 32 14 8 12 21 18 32 15 10 -2 24 3 31 11 8 9 24 16 37 16 13 0 28 9 34 19 7
13 16 17 31 14 14 -4 25 0 31 11 5 9 19 16 32 16 13 0 29 7 36 15 7 9 19 14
26 11 19 -7 48 19 41 38 -8 19 -33 21 -68 3z"/>
<path d="M1450 2430 c0 -5 5 -10 10 -10 6 0 10 5 10 10 0 6 -4 10 -10 10 -5 0
-10 -4 -10 -10z"/>
</g>
</svg>
